<mxfile host="app.diagrams.net" modified="2022-05-07T02:54:40.530Z" agent="5.0 (Windows NT 10.0; Win64; x64) AppleWebKit/537.36 (KHTML, like Gecko) Chrome/101.0.4951.54 Safari/537.36 Edg/101.0.1210.39" etag="p9yqKp1nK8lVSJZNeY7w" version="17.5.0" type="github">
  <diagram id="D2S3hpQ_ekvoqC_zOR3p" name="Page-1">
    <mxGraphModel dx="868" dy="482" grid="1" gridSize="10" guides="1" tooltips="1" connect="1" arrows="1" fold="1" page="1" pageScale="1" pageWidth="827" pageHeight="1169" math="0" shadow="0">
      <root>
        <mxCell id="0" />
        <mxCell id="1" parent="0" />
        <mxCell id="2ZzV5A5w4CdiXzE2fC0s-5" style="edgeStyle=orthogonalEdgeStyle;rounded=0;orthogonalLoop=1;jettySize=auto;html=1;entryX=0.5;entryY=0;entryDx=0;entryDy=0;" edge="1" parent="1" source="2ZzV5A5w4CdiXzE2fC0s-1" target="2ZzV5A5w4CdiXzE2fC0s-4">
          <mxGeometry relative="1" as="geometry" />
        </mxCell>
        <mxCell id="2ZzV5A5w4CdiXzE2fC0s-1" value="客户端调用提供者" style="rounded=0;whiteSpace=wrap;html=1;" vertex="1" parent="1">
          <mxGeometry x="190" y="40" width="100" height="40" as="geometry" />
        </mxCell>
        <mxCell id="2ZzV5A5w4CdiXzE2fC0s-4" value="连续超时，超过指定次数？" style="rhombus;whiteSpace=wrap;html=1;" vertex="1" parent="1">
          <mxGeometry x="200" y="130" width="80" height="80" as="geometry" />
        </mxCell>
        <mxCell id="2ZzV5A5w4CdiXzE2fC0s-6" value="" style="rounded=0;whiteSpace=wrap;html=1;" vertex="1" parent="1">
          <mxGeometry x="180" y="280" width="120" height="60" as="geometry" />
        </mxCell>
        <mxCell id="2ZzV5A5w4CdiXzE2fC0s-8" value="&lt;h1 style=&quot;font-size: 19px&quot;&gt;&lt;font style=&quot;font-size: 19px&quot;&gt;能够解决哪些问题&lt;/font&gt;&lt;/h1&gt;&lt;font style=&quot;font-size: 14px&quot;&gt;1、消费者和提供者之间的网络&lt;br&gt;2、提供者自身问题&lt;/font&gt;&lt;span&gt;&lt;br&gt;&lt;/span&gt;" style="text;html=1;strokeColor=none;fillColor=none;spacing=5;spacingTop=-20;whiteSpace=wrap;overflow=hidden;rounded=0;align=left;" vertex="1" parent="1">
          <mxGeometry x="10" y="390" width="240" height="80" as="geometry" />
        </mxCell>
      </root>
    </mxGraphModel>
  </diagram>
</mxfile>
